<svg id="visual" viewBox="0 0 900 200" width="900" height="200" xmlns="http://www.w3.org/2000/svg" xmlns:xlink="http://www.w3.org/1999/xlink" version="1.1"><rect x="0" y="0" width="900" height="200" fill="#F03F00"></rect><path d="M0 59L21.5 60C43 61 86 63 128.8 66.2C171.7 69.3 214.3 73.7 257.2 74C300 74.3 343 70.7 385.8 65.8C428.7 61 471.3 55 514.2 54.8C557 54.7 600 60.3 642.8 65.3C685.7 70.3 728.3 74.7 771.2 73.2C814 71.7 857 64.3 878.5 60.7L900 57L900 0L878.5 0C857 0 814 0 771.2 0C728.3 0 685.7 0 642.8 0C600 0 557 0 514.2 0C471.3 0 428.7 0 385.8 0C343 0 300 0 257.2 0C214.3 0 171.7 0 128.8 0C86 0 43 0 21.5 0L0 0Z" fill="#f03f00"></path><path d="M0 43L21.5 46.5C43 50 86 57 128.8 58C171.7 59 214.3 54 257.2 52.7C300 51.3 343 53.7 385.8 53.7C428.7 53.7 471.3 51.3 514.2 51.3C557 51.3 600 53.7 642.8 55.7C685.7 57.7 728.3 59.3 771.2 59.8C814 60.3 857 59.7 878.5 59.3L900 59L900 0L878.5 0C857 0 814 0 771.2 0C728.3 0 685.7 0 642.8 0C600 0 557 0 514.2 0C471.3 0 428.7 0 385.8 0C343 0 300 0 257.2 0C214.3 0 171.7 0 128.8 0C86 0 43 0 21.5 0L0 0Z" fill="#d0003d"></path><path d="M0 43L21.5 43.3C43 43.7 86 44.3 128.8 43.8C171.7 43.3 214.3 41.7 257.2 40.2C300 38.7 343 37.3 385.8 39.3C428.7 41.3 471.3 46.7 514.2 47.7C557 48.7 600 45.3 642.8 42.5C685.7 39.7 728.3 37.3 771.2 36.5C814 35.7 857 36.3 878.5 36.7L900 37L900 0L878.5 0C857 0 814 0 771.2 0C728.3 0 685.7 0 642.8 0C600 0 557 0 514.2 0C471.3 0 428.7 0 385.8 0C343 0 300 0 257.2 0C214.3 0 171.7 0 128.8 0C86 0 43 0 21.5 0L0 0Z" fill="#9d0052"></path><path d="M0 36L21.5 33.3C43 30.7 86 25.3 128.8 25.3C171.7 25.3 214.3 30.7 257.2 33C300 35.3 343 34.7 385.8 33.5C428.7 32.3 471.3 30.7 514.2 28.7C557 26.7 600 24.3 642.8 24C685.7 23.7 728.3 25.3 771.2 27.8C814 30.3 857 33.7 878.5 35.3L900 37L900 0L878.5 0C857 0 814 0 771.2 0C728.3 0 685.7 0 642.8 0C600 0 557 0 514.2 0C471.3 0 428.7 0 385.8 0C343 0 300 0 257.2 0C214.3 0 171.7 0 128.8 0C86 0 43 0 21.5 0L0 0Z" fill="#611652"></path><path d="M0 21L21.5 21C43 21 86 21 128.8 20.2C171.7 19.3 214.3 17.7 257.2 15.5C300 13.3 343 10.7 385.8 11.5C428.7 12.3 471.3 16.7 514.2 17C557 17.3 600 13.7 642.8 11.8C685.7 10 728.3 10 771.2 11.7C814 13.3 857 16.7 878.5 18.3L900 20L900 0L878.5 0C857 0 814 0 771.2 0C728.3 0 685.7 0 642.8 0C600 0 557 0 514.2 0C471.3 0 428.7 0 385.8 0C343 0 300 0 257.2 0C214.3 0 171.7 0 128.8 0C86 0 43 0 21.5 0L0 0Z" fill="#29163d"></path></svg>