<svg id="visual" viewBox="0 0 900 600" width="900" height="600" xmlns="http://www.w3.org/2000/svg" xmlns:xlink="http://www.w3.org/1999/xlink" version="1.1"><rect x="0" y="0" width="900" height="600" fill="#f7f6f6"></rect><defs><linearGradient id="grad1_0" x1="33.3%" y1="0%" x2="100%" y2="100%"><stop offset="20%" stop-color="#009473" stop-opacity="1"></stop><stop offset="80%" stop-color="#009473" stop-opacity="1"></stop></linearGradient></defs><defs><linearGradient id="grad1_1" x1="33.3%" y1="0%" x2="100%" y2="100%"><stop offset="20%" stop-color="#009473" stop-opacity="1"></stop><stop offset="80%" stop-color="#62a06e" stop-opacity="1"></stop></linearGradient></defs><defs><linearGradient id="grad1_2" x1="33.3%" y1="0%" x2="100%" y2="100%"><stop offset="20%" stop-color="#92aa75" stop-opacity="1"></stop><stop offset="80%" stop-color="#62a06e" stop-opacity="1"></stop></linearGradient></defs><defs><linearGradient id="grad1_3" x1="33.3%" y1="0%" x2="100%" y2="100%"><stop offset="20%" stop-color="#92aa75" stop-opacity="1"></stop><stop offset="80%" stop-color="#b7b487" stop-opacity="1"></stop></linearGradient></defs><defs><linearGradient id="grad1_4" x1="33.3%" y1="0%" x2="100%" y2="100%"><stop offset="20%" stop-color="#d4c0a1" stop-opacity="1"></stop><stop offset="80%" stop-color="#b7b487" stop-opacity="1"></stop></linearGradient></defs><defs><linearGradient id="grad1_5" x1="33.3%" y1="0%" x2="100%" y2="100%"><stop offset="20%" stop-color="#d4c0a1" stop-opacity="1"></stop><stop offset="80%" stop-color="#e7cfbf" stop-opacity="1"></stop></linearGradient></defs><defs><linearGradient id="grad1_6" x1="33.3%" y1="0%" x2="100%" y2="100%"><stop offset="20%" stop-color="#f2e2dd" stop-opacity="1"></stop><stop offset="80%" stop-color="#e7cfbf" stop-opacity="1"></stop></linearGradient></defs><defs><linearGradient id="grad1_7" x1="33.3%" y1="0%" x2="100%" y2="100%"><stop offset="20%" stop-color="#f2e2dd" stop-opacity="1"></stop><stop offset="80%" stop-color="#f7f6f6" stop-opacity="1"></stop></linearGradient></defs><defs><linearGradient id="grad2_0" x1="0%" y1="0%" x2="66.7%" y2="100%"><stop offset="20%" stop-color="#009473" stop-opacity="1"></stop><stop offset="80%" stop-color="#009473" stop-opacity="1"></stop></linearGradient></defs><defs><linearGradient id="grad2_1" x1="0%" y1="0%" x2="66.7%" y2="100%"><stop offset="20%" stop-color="#62a06e" stop-opacity="1"></stop><stop offset="80%" stop-color="#009473" stop-opacity="1"></stop></linearGradient></defs><defs><linearGradient id="grad2_2" x1="0%" y1="0%" x2="66.7%" y2="100%"><stop offset="20%" stop-color="#62a06e" stop-opacity="1"></stop><stop offset="80%" stop-color="#92aa75" stop-opacity="1"></stop></linearGradient></defs><defs><linearGradient id="grad2_3" x1="0%" y1="0%" x2="66.7%" y2="100%"><stop offset="20%" stop-color="#b7b487" stop-opacity="1"></stop><stop offset="80%" stop-color="#92aa75" stop-opacity="1"></stop></linearGradient></defs><defs><linearGradient id="grad2_4" x1="0%" y1="0%" x2="66.7%" y2="100%"><stop offset="20%" stop-color="#b7b487" stop-opacity="1"></stop><stop offset="80%" stop-color="#d4c0a1" stop-opacity="1"></stop></linearGradient></defs><defs><linearGradient id="grad2_5" x1="0%" y1="0%" x2="66.7%" y2="100%"><stop offset="20%" stop-color="#e7cfbf" stop-opacity="1"></stop><stop offset="80%" stop-color="#d4c0a1" stop-opacity="1"></stop></linearGradient></defs><defs><linearGradient id="grad2_6" x1="0%" y1="0%" x2="66.7%" y2="100%"><stop offset="20%" stop-color="#e7cfbf" stop-opacity="1"></stop><stop offset="80%" stop-color="#f2e2dd" stop-opacity="1"></stop></linearGradient></defs><defs><linearGradient id="grad2_7" x1="0%" y1="0%" x2="66.7%" y2="100%"><stop offset="20%" stop-color="#f7f6f6" stop-opacity="1"></stop><stop offset="80%" stop-color="#f2e2dd" stop-opacity="1"></stop></linearGradient></defs><g transform="translate(900, 0)"><path d="M0 378.6C-57.4 383 -114.9 387.5 -144.9 349.8C-174.9 312 -177.4 232.2 -185.3 185.3C-193.1 138.4 -206.2 124.5 -239.3 99.1C-272.4 73.7 -325.5 36.9 -378.6 0L0 0Z" fill="#f5ecea"></path><path d="M0 331.3C-50.3 335.2 -100.5 339.1 -126.8 306C-153 273 -155.3 203.1 -162.1 162.1C-169 121.1 -180.4 108.9 -209.4 86.7C-238.3 64.5 -284.8 32.3 -331.3 0L0 0Z" fill="#eed8cf"></path><path d="M0 283.9C-43.1 287.3 -86.2 290.6 -108.7 262.3C-131.2 234 -133.1 174.1 -138.9 138.9C-144.8 103.8 -154.6 93.4 -179.5 74.3C-204.3 55.3 -244.1 27.7 -283.9 0L0 0Z" fill="#dfc8b0"></path><path d="M0 236.6C-35.9 239.4 -71.8 242.2 -90.5 218.6C-109.3 195 -110.9 145.1 -115.8 115.8C-120.7 86.5 -128.9 77.8 -149.6 61.9C-170.2 46.1 -203.4 23 -236.6 0L0 0Z" fill="#c7ba93"></path><path d="M0 189.3C-28.7 191.5 -57.4 193.7 -72.4 174.9C-87.4 156 -88.7 116.1 -92.6 92.6C-96.5 69.2 -103.1 62.2 -119.6 49.6C-136.2 36.9 -162.7 18.4 -189.3 0L0 0Z" fill="#a6af7d"></path><path d="M0 142C-21.5 143.6 -43.1 145.3 -54.3 131.2C-65.6 117 -66.5 87.1 -69.5 69.5C-72.4 51.9 -77.3 46.7 -89.7 37.2C-102.1 27.7 -122.1 13.8 -142 0L0 0Z" fill="#7ba570"></path><path d="M0 94.6C-14.4 95.8 -28.7 96.9 -36.2 87.4C-43.7 78 -44.4 58 -46.3 46.3C-48.3 34.6 -51.5 31.1 -59.8 24.8C-68.1 18.4 -81.4 9.2 -94.6 0L0 0Z" fill="#429a6f"></path><path d="M0 47.3C-7.2 47.9 -14.4 48.4 -18.1 43.7C-21.9 39 -22.2 29 -23.2 23.2C-24.1 17.3 -25.8 15.6 -29.9 12.4C-34 9.2 -40.7 4.6 -47.3 0L0 0Z" fill="#009473"></path></g><g transform="translate(0, 600)"><path d="M0 -378.6C40.4 -342.1 80.9 -305.6 116.3 -280.9C151.8 -256.1 182.3 -243.1 224.9 -224.9C267.4 -206.6 322.1 -183.2 349.8 -144.9C377.4 -106.5 378 -53.3 378.6 0L0 0Z" fill="#f5ecea"></path><path d="M0 -331.3C35.4 -299.3 70.8 -267.4 101.8 -245.8C132.8 -224.1 159.5 -212.7 196.8 -196.8C234 -180.8 281.9 -160.3 306 -126.8C330.2 -93.2 330.7 -46.6 331.3 0L0 0Z" fill="#eed8cf"></path><path d="M0 -283.9C30.3 -256.6 60.7 -229.2 87.3 -210.6C113.8 -192.1 136.7 -182.3 168.6 -168.6C200.6 -155 241.6 -137.4 262.3 -108.7C283.1 -79.9 283.5 -40 283.9 0L0 0Z" fill="#dfc8b0"></path><path d="M0 -236.6C25.3 -213.8 50.5 -191 72.7 -175.5C94.9 -160.1 113.9 -151.9 140.5 -140.5C167.2 -129.1 201.3 -114.5 218.6 -90.5C235.9 -66.6 236.2 -33.3 236.6 0L0 0Z" fill="#c7ba93"></path><path d="M0 -189.3C20.2 -171 40.4 -152.8 58.2 -140.4C75.9 -128.1 91.1 -121.5 112.4 -112.4C133.7 -103.3 161.1 -91.6 174.9 -72.4C188.7 -53.3 189 -26.6 189.3 0L0 0Z" fill="#a6af7d"></path><path d="M0 -142C15.2 -128.3 30.3 -114.6 43.6 -105.3C56.9 -96 68.4 -91.2 84.3 -84.3C100.3 -77.5 120.8 -68.7 131.2 -54.3C141.5 -40 141.7 -20 142 0L0 0Z" fill="#7ba570"></path><path d="M0 -94.6C10.1 -85.5 20.2 -76.4 29.1 -70.2C37.9 -64 45.6 -60.8 56.2 -56.2C66.9 -51.7 80.5 -45.8 87.4 -36.2C94.4 -26.6 94.5 -13.3 94.6 0L0 0Z" fill="#429a6f"></path><path d="M0 -47.3C5.1 -42.8 10.1 -38.2 14.5 -35.1C19 -32 22.8 -30.4 28.1 -28.1C33.4 -25.8 40.3 -22.9 43.7 -18.1C47.2 -13.3 47.2 -6.7 47.3 0L0 0Z" fill="#009473"></path></g></svg>