<svg id="visual" viewBox="0 0 900 200" width="900" height="200" xmlns="http://www.w3.org/2000/svg" xmlns:xlink="http://www.w3.org/1999/xlink" version="1.1"><path d="M0 27L13.7 29.3C27.3 31.7 54.7 36.3 82 34.7C109.3 33 136.7 25 163.8 24.3C191 23.7 218 30.3 245.2 37.7C272.3 45 299.7 53 327 49.7C354.3 46.3 381.7 31.7 409 28.7C436.3 25.7 463.7 34.3 491 38.7C518.3 43 545.7 43 573 45C600.3 47 627.7 51 654.8 46C682 41 709 27 736.2 26C763.3 25 790.7 37 818 42C845.3 47 872.7 45 886.3 44L900 43L900 0L886.3 0C872.7 0 845.3 0 818 0C790.7 0 763.3 0 736.2 0C709 0 682 0 654.8 0C627.7 0 600.3 0 573 0C545.7 0 518.3 0 491 0C463.7 0 436.3 0 409 0C381.7 0 354.3 0 327 0C299.7 0 272.3 0 245.2 0C218 0 191 0 163.8 0C136.7 0 109.3 0 82 0C54.7 0 27.3 0 13.7 0L0 0Z" fill="#f7f6f6"></path><path d="M0 37L13.7 43.3C27.3 49.7 54.7 62.3 82 60.3C109.3 58.3 136.7 41.7 163.8 42C191 42.3 218 59.7 245.2 66.7C272.3 73.7 299.7 70.3 327 64.3C354.3 58.3 381.7 49.7 409 50C436.3 50.3 463.7 59.7 491 64C518.3 68.3 545.7 67.7 573 68C600.3 68.3 627.7 69.7 654.8 64C682 58.3 709 45.7 736.2 48.7C763.3 51.7 790.7 70.3 818 76.7C845.3 83 872.7 77 886.3 74L900 71L900 41L886.3 42C872.7 43 845.3 45 818 40C790.7 35 763.3 23 736.2 24C709 25 682 39 654.8 44C627.7 49 600.3 45 573 43C545.7 41 518.3 41 491 36.7C463.7 32.3 436.3 23.7 409 26.7C381.7 29.7 354.3 44.3 327 47.7C299.7 51 272.3 43 245.2 35.7C218 28.3 191 21.7 163.8 22.3C136.7 23 109.3 31 82 32.7C54.7 34.3 27.3 29.7 13.7 27.3L0 25Z" fill="#ffc9c5"></path><path d="M0 67L13.7 71.7C27.3 76.3 54.7 85.7 82 81C109.3 76.3 136.7 57.7 163.8 59C191 60.3 218 81.7 245.2 93.3C272.3 105 299.7 107 327 104.3C354.3 101.7 381.7 94.3 409 91C436.3 87.7 463.7 88.3 491 92.7C518.3 97 545.7 105 573 105.7C600.3 106.3 627.7 99.7 654.8 89.7C682 79.7 709 66.3 736.2 67C763.3 67.7 790.7 82.3 818 91.7C845.3 101 872.7 105 886.3 107L900 109L900 69L886.3 72C872.7 75 845.3 81 818 74.7C790.7 68.3 763.3 49.7 736.2 46.7C709 43.7 682 56.3 654.8 62C627.7 67.7 600.3 66.3 573 66C545.7 65.7 518.3 66.3 491 62C463.7 57.7 436.3 48.3 409 48C381.7 47.7 354.3 56.3 327 62.3C299.7 68.3 272.3 71.7 245.2 64.7C218 57.7 191 40.3 163.8 40C136.7 39.7 109.3 56.3 82 58.3C54.7 60.3 27.3 47.7 13.7 41.3L0 35Z" fill="#ff9c8e"></path><path d="M0 91L13.7 100C27.3 109 54.7 127 82 132.7C109.3 138.3 136.7 131.7 163.8 137C191 142.3 218 159.7 245.2 163C272.3 166.3 299.7 155.7 327 148.3C354.3 141 381.7 137 409 135.7C436.3 134.3 463.7 135.7 491 139.7C518.3 143.7 545.7 150.3 573 156.7C600.3 163 627.7 169 654.8 161C682 153 709 131 736.2 129.7C763.3 128.3 790.7 147.7 818 152C845.3 156.3 872.7 145.7 886.3 140.3L900 135L900 107L886.3 105C872.7 103 845.3 99 818 89.7C790.7 80.3 763.3 65.7 736.2 65C709 64.3 682 77.7 654.8 87.7C627.7 97.7 600.3 104.3 573 103.7C545.7 103 518.3 95 491 90.7C463.7 86.3 436.3 85.7 409 89C381.7 92.3 354.3 99.7 327 102.3C299.7 105 272.3 103 245.2 91.3C218 79.7 191 58.3 163.8 57C136.7 55.7 109.3 74.3 82 79C54.7 83.7 27.3 74.3 13.7 69.7L0 65Z" fill="#fd6f52"></path><path d="M0 201L13.7 201C27.3 201 54.7 201 82 201C109.3 201 136.7 201 163.8 201C191 201 218 201 245.2 201C272.3 201 299.7 201 327 201C354.3 201 381.7 201 409 201C436.3 201 463.7 201 491 201C518.3 201 545.7 201 573 201C600.3 201 627.7 201 654.8 201C682 201 709 201 736.2 201C763.3 201 790.7 201 818 201C845.3 201 872.7 201 886.3 201L900 201L900 133L886.3 138.3C872.7 143.7 845.3 154.3 818 150C790.7 145.7 763.3 126.3 736.2 127.7C709 129 682 151 654.8 159C627.7 167 600.3 161 573 154.7C545.7 148.3 518.3 141.7 491 137.7C463.7 133.7 436.3 132.3 409 133.7C381.7 135 354.3 139 327 146.3C299.7 153.7 272.3 164.3 245.2 161C218 157.7 191 140.3 163.8 135C136.7 129.7 109.3 136.3 82 130.7C54.7 125 27.3 107 13.7 98L0 89Z" fill="#f03f00"></path></svg>