<svg id="visual" viewBox="0 0 900 200" width="900" height="200" xmlns="http://www.w3.org/2000/svg" xmlns:xlink="http://www.w3.org/1999/xlink" version="1.1"><rect x="0" y="0" width="900" height="200" fill="#f7f6f6"></rect><path d="M0 114L129 114L129 112L257 112L257 103L386 103L386 112L514 112L514 86L643 86L643 112L771 112L771 118L900 118L900 94L900 201L900 201L771 201L771 201L643 201L643 201L514 201L514 201L386 201L386 201L257 201L257 201L129 201L129 201L0 201Z" fill="#007b30"></path><path d="M0 139L129 139L129 144L257 144L257 127L386 127L386 122L514 122L514 137L643 137L643 119L771 119L771 145L900 145L900 151L900 201L900 201L771 201L771 201L643 201L643 201L514 201L514 201L386 201L386 201L257 201L257 201L129 201L129 201L0 201Z" fill="#005935"></path><path d="M0 162L129 162L129 172L257 172L257 180L386 180L386 167L514 167L514 170L643 170L643 180L771 180L771 154L900 154L900 163L900 201L900 201L771 201L771 201L643 201L643 201L514 201L514 201L386 201L386 201L257 201L257 201L129 201L129 201L0 201Z" fill="#03372c"></path></svg>