<svg id="visual" viewBox="0 0 900 200" width="900" height="200" xmlns="http://www.w3.org/2000/svg" xmlns:xlink="http://www.w3.org/1999/xlink" version="1.1"><rect x="0" y="0" width="900" height="200" fill="#03372c"></rect><path d="M0 129L21.5 135C43 141 86 153 128.8 152.3C171.7 151.7 214.3 138.3 257.2 134.2C300 130 343 135 385.8 135C428.7 135 471.3 130 514.2 128.3C557 126.7 600 128.3 642.8 136C685.7 143.7 728.3 157.3 771.2 161.2C814 165 857 159 878.5 156L900 153L900 201L878.5 201C857 201 814 201 771.2 201C728.3 201 685.7 201 642.8 201C600 201 557 201 514.2 201C471.3 201 428.7 201 385.8 201C343 201 300 201 257.2 201C214.3 201 171.7 201 128.8 201C86 201 43 201 21.5 201L0 201Z" fill="#FFEFEC" stroke-linecap="round" stroke-linejoin="miter"></path></svg>