<svg id="visual" viewBox="0 0 900 200" width="900" height="200" xmlns="http://www.w3.org/2000/svg" xmlns:xlink="http://www.w3.org/1999/xlink" version="1.1"><rect x="0" y="0" width="900" height="200" fill="#03372c"></rect><path d="M0 63L21.5 74.5C43 86 86 109 128.8 117.5C171.7 126 214.3 120 257.2 106.3C300 92.7 343 71.3 385.8 69.3C428.7 67.3 471.3 84.7 514.2 89.8C557 95 600 88 642.8 94.5C685.7 101 728.3 121 771.2 130.2C814 139.3 857 137.7 878.5 136.8L900 136L900 201L878.5 201C857 201 814 201 771.2 201C728.3 201 685.7 201 642.8 201C600 201 557 201 514.2 201C471.3 201 428.7 201 385.8 201C343 201 300 201 257.2 201C214.3 201 171.7 201 128.8 201C86 201 43 201 21.5 201L0 201Z" fill="#009473" stroke-linecap="round" stroke-linejoin="miter"></path></svg>