<svg id="visual" viewBox="0 0 900 200" width="900" height="200" xmlns="http://www.w3.org/2000/svg" xmlns:xlink="http://www.w3.org/1999/xlink" version="1.1"><path d="M0 37L13.7 47.3C27.3 57.7 54.7 78.3 82 79.3C109.3 80.3 136.7 61.7 163.8 50.7C191 39.7 218 36.3 245.2 41.7C272.3 47 299.7 61 327 65.7C354.3 70.3 381.7 65.7 409 63.7C436.3 61.7 463.7 62.3 491 61.7C518.3 61 545.7 59 573 57C600.3 55 627.7 53 654.8 50.3C682 47.7 709 44.3 736.2 44.7C763.3 45 790.7 49 818 52.3C845.3 55.7 872.7 58.3 886.3 59.7L900 61L900 0L886.3 0C872.7 0 845.3 0 818 0C790.7 0 763.3 0 736.2 0C709 0 682 0 654.8 0C627.7 0 600.3 0 573 0C545.7 0 518.3 0 491 0C463.7 0 436.3 0 409 0C381.7 0 354.3 0 327 0C299.7 0 272.3 0 245.2 0C218 0 191 0 163.8 0C136.7 0 109.3 0 82 0C54.7 0 27.3 0 13.7 0L0 0Z" fill="#009473"></path><path d="M0 115L13.7 118.3C27.3 121.7 54.7 128.3 82 129C109.3 129.7 136.7 124.3 163.8 119.3C191 114.3 218 109.7 245.2 114.3C272.3 119 299.7 133 327 132.3C354.3 131.7 381.7 116.3 409 108.7C436.3 101 463.7 101 491 107C518.3 113 545.7 125 573 127C600.3 129 627.7 121 654.8 117.3C682 113.7 709 114.3 736.2 117C763.3 119.7 790.7 124.3 818 122.3C845.3 120.3 872.7 111.7 886.3 107.3L900 103L900 59L886.3 57.7C872.7 56.3 845.3 53.7 818 50.3C790.7 47 763.3 43 736.2 42.7C709 42.3 682 45.7 654.8 48.3C627.7 51 600.3 53 573 55C545.7 57 518.3 59 491 59.7C463.7 60.3 436.3 59.7 409 61.7C381.7 63.7 354.3 68.3 327 63.7C299.7 59 272.3 45 245.2 39.7C218 34.3 191 37.7 163.8 48.7C136.7 59.7 109.3 78.3 82 77.3C54.7 76.3 27.3 55.7 13.7 45.3L0 35Z" fill="#4a9243"></path><path d="M0 161L13.7 161C27.3 161 54.7 161 82 158C109.3 155 136.7 149 163.8 148.3C191 147.7 218 152.3 245.2 157.7C272.3 163 299.7 169 327 167.7C354.3 166.3 381.7 157.7 409 152.3C436.3 147 463.7 145 491 147C518.3 149 545.7 155 573 155.3C600.3 155.7 627.7 150.3 654.8 149.7C682 149 709 153 736.2 155C763.3 157 790.7 157 818 155.3C845.3 153.7 872.7 150.3 886.3 148.7L900 147L900 101L886.3 105.3C872.7 109.7 845.3 118.3 818 120.3C790.7 122.3 763.3 117.7 736.2 115C709 112.3 682 111.7 654.8 115.3C627.7 119 600.3 127 573 125C545.7 123 518.3 111 491 105C463.7 99 436.3 99 409 106.7C381.7 114.3 354.3 129.7 327 130.3C299.7 131 272.3 117 245.2 112.3C218 107.7 191 112.3 163.8 117.3C136.7 122.3 109.3 127.7 82 127C54.7 126.3 27.3 119.7 13.7 116.3L0 113Z" fill="#7d8900"></path><path d="M0 173L13.7 174.3C27.3 175.7 54.7 178.3 82 177.7C109.3 177 136.7 173 163.8 173.3C191 173.7 218 178.3 245.2 181.3C272.3 184.3 299.7 185.7 327 183C354.3 180.3 381.7 173.7 409 170C436.3 166.3 463.7 165.7 491 167C518.3 168.3 545.7 171.7 573 170.3C600.3 169 627.7 163 654.8 162.7C682 162.3 709 167.7 736.2 172.7C763.3 177.7 790.7 182.3 818 181.7C845.3 181 872.7 175 886.3 172L900 169L900 145L886.3 146.7C872.7 148.3 845.3 151.7 818 153.3C790.7 155 763.3 155 736.2 153C709 151 682 147 654.8 147.7C627.7 148.3 600.3 153.7 573 153.3C545.7 153 518.3 147 491 145C463.7 143 436.3 145 409 150.3C381.7 155.7 354.3 164.3 327 165.7C299.7 167 272.3 161 245.2 155.7C218 150.3 191 145.7 163.8 146.3C136.7 147 109.3 153 82 156C54.7 159 27.3 159 13.7 159L0 159Z" fill="#b57400"></path><path d="M0 201L13.7 201C27.3 201 54.7 201 82 201C109.3 201 136.7 201 163.8 201C191 201 218 201 245.2 201C272.3 201 299.7 201 327 201C354.3 201 381.7 201 409 201C436.3 201 463.7 201 491 201C518.3 201 545.7 201 573 201C600.3 201 627.7 201 654.8 201C682 201 709 201 736.2 201C763.3 201 790.7 201 818 201C845.3 201 872.7 201 886.3 201L900 201L900 167L886.3 170C872.7 173 845.3 179 818 179.7C790.7 180.3 763.3 175.7 736.2 170.7C709 165.7 682 160.3 654.8 160.7C627.7 161 600.3 167 573 168.3C545.7 169.7 518.3 166.3 491 165C463.7 163.7 436.3 164.3 409 168C381.7 171.7 354.3 178.3 327 181C299.7 183.7 272.3 182.3 245.2 179.3C218 176.3 191 171.7 163.8 171.3C136.7 171 109.3 175 82 175.7C54.7 176.3 27.3 173.7 13.7 172.3L0 171Z" fill="#f03f00"></path></svg>